# xmcd
#
# Track frame offsets:
#	150
#	17987
#	38584
#	58403
#	77135
#	96155
#	112454
#	130816
#	148661
#	166731
#	186823
#	211367
#	229538
#
# Disc length: 3544 seconds
#
# Revision: 0
# Processed by: cddbd v1.5.2PL0 Copyright (c) Steve Scherf et al.
# Submitted via: EasyCDDAExtractor 12.0.4.1
#
DISCID=b70dd60d
DTITLE=Joan Armatrading - Into The Blues
DYEAR=1900
DGENRE=Blues
TTITLE0=A Woman In Love
TTITLE1=Play The Blues
TTITLE2=Into The Blues
TTITLE3=Liza
TTITLE4=Secular Songs
TTITLE5=My Baby's Gone
TTITLE6=D.N.A.
TTITLE7=Baby Blue Eyes
TTITLE8=Deep Down
TTITLE9=There Ain't A Girl Alive
TTITLE10=Empty Highway
TTITLE11=Mama Papa
TTITLE12=Something's Gotta Blow
EXTD=
EXTT0=
EXTT1=
EXTT2=
EXTT3=
EXTT4=
EXTT5=
EXTT6=
EXTT7=
EXTT8=
EXTT9=
EXTT10=
EXTT11=
EXTT12=
PLAYORDER=
